<svg xmlns="http://www.w3.org/2000/svg" version="1.1" xmlns:xlink="http://www.w3.org/1999/xlink" xmlns:svgjs="http://svgjs.dev/svgjs" width="2000" height="1500" viewBox="0 0 2000 1500"><rect width="2000" height="1500" fill="#fafafa"></rect><g transform="matrix(0.75,0,0,0.75,249.0909092282211,282.7536437246963)"><svg viewBox="0 0 396 247" data-background-color="#fafafa" preserveAspectRatio="xMidYMid meet" height="1247" width="2000" xmlns="http://www.w3.org/2000/svg" xmlns:xlink="http://www.w3.org/1999/xlink"><g id="tight-bounds" transform="matrix(1,0,0,1,0.2400000362503647,-0.09999999999999432)"><svg viewBox="0 0 395.52 247.2" height="247.2" width="395.52"><g><svg viewBox="0 0 395.52 247.2" height="247.2" width="395.52"><g transform="matrix(1,0,0,1,2.842170943040401e-14,50.82107637109176)"><svg viewBox="0 0 395.5199999999999 145.55784725781646" height="145.55784725781646" width="395.5199999999999"><g><svg viewBox="0 0 395.52000000000004 145.5578472578165" height="145.55784725781646" width="395.5199999999999"><g><svg viewBox="0 0 395.52000000000004 145.5578472578165" height="145.5578472578165" width="395.52000000000004"><g id="textblocktransform"><svg viewBox="0 0 395.52000000000004 145.5578472578165" height="145.5578472578165" width="395.52000000000004" id="textblock"><g><svg viewBox="0 0 395.52000000000004 145.5578472578165" height="145.5578472578165" width="395.52000000000004"><g transform="matrix(1,0,0,1,0,0)"><svg width="395.52000000000004" viewBox="0.45000001788139343 -35.900001525878906 97.55000305175781 35.900001525878906" height="145.5578472578165" data-palette-color="#130912"><path d="M36.05-1.4L36.05 0 23.25 0 23.25-1.4 24.85-1.4Q27.05-1.4 27.05-2.8L27.05-2.8Q27.05-3 26.55-4.5L26.55-4.5 23.15-13.4 10.55-13.4 7.25-4.9Q7.25-4.8 6.9-3.68 6.55-2.55 6.55-2.13 6.55-1.7 7.1-1.55 7.65-1.4 9.45-1.4L9.45-1.4 10.25-1.4 10.25 0 0.45 0 0.45-1.4 1.15-1.4Q2.8-1.4 3.55-1.98 4.3-2.55 4.85-3.9L4.85-3.9 15.85-32.6Q16.1-32.65 16.75-33.33 17.4-34 17.95-34.73 18.5-35.45 18.5-35.55 18.5-35.65 18.45-35.7L18.45-35.7 19.15-35.9 31.45-3.7Q32-2.55 32.58-1.98 33.15-1.4 34.25-1.4L34.25-1.4 36.05-1.4ZM11.35-15.5L22.25-15.5 16.85-29.8 11.35-15.5ZM38.55-35L46.25-35 55.75-35.5Q60.15-35.5 62.95-33.65 65.75-31.8 65.75-28.6L65.75-28.6Q65.75-24.15 63.35-21.35 60.95-18.55 57.45-17.1L57.45-17.1 65.55-4.9Q66.05-4.1 67.47-2.75 68.9-1.4 70.05-1.4L70.05-1.4 70.95-1.4 70.95 0 63.55 0Q63.7 0 62.6-1.5 61.5-3 61.35-3.3L61.35-3.3 53.05-16.1Q52.55-16 51.05-16 49.55-16 48.65-16.1L48.65-16.1 48.25-18.1Q48.95-18 51.25-18 53.55-18 55.85-18.6 58.15-19.2 59.9-20.88 61.65-22.55 61.65-25.2L61.65-25.2Q61.65-32.6 52.15-32.6L52.15-32.6 46.95-32.4 46.95-3.7Q46.95-2.95 47.05-2.55 47.15-2.15 47.7-1.78 48.25-1.4 49.35-1.4L49.35-1.4 51.25-1.4 51.25 0 38.55 0 38.55-1.4 40.15-1.4Q41.25-1.4 41.8-1.78 42.35-2.15 42.45-2.55 42.55-2.95 42.55-3.7L42.55-3.7 42.55-31.3Q42.55-32.45 42.07-32.98 41.6-33.5 40.15-33.5L40.15-33.5 38.55-33.5 38.55-35ZM81.9 0L81.9 0 76.1 0Q78.95-6.35 80.47-9.45 82-12.55 85.52-18.3 89.05-24.05 93.8-30.3L93.8-30.3 80.8-30.3Q77.9-30.3 76-28.85 74.1-27.4 74-25.9L74-25.9 72.6-26.1 74.6-34.5 98-34.5 97.9-33.3Q90.95-24.15 86.77-15.33 82.6-6.5 81.9 0Z" opacity="1" transform="matrix(1,0,0,1,0,0)" fill="#130912" class="undefined-text-0" data-fill-palette-color="primary" id="text-0"></path></svg></g></svg></g></svg></g></svg></g><g></g></svg></g></svg></g></svg></g><defs></defs></svg><rect width="395.52" height="247.2" fill="none" stroke="none" visibility="hidden"></rect></g></svg></g></svg>